REM DIRINDEX 1\2,1\3
REM DIRNAME folder01,folder02,folder03
TITLE ""
FILE "0401-0440.mp3" MP3
  TRACK 01 AUDIO
    TITLE "0:"
    INDEX 01 00:00:00
  TRACK 02 AUDIO
    TITLE "2:cjc039_0401"
    INDEX 01 00:00:27
  TRACK 03 AUDIO
    TITLE "0:"
    INDEX 01 00:01:46
  TRACK 04 AUDIO
    TITLE "2:cjc039_0402"
    INDEX 01 00:02:22
  TRACK 05 AUDIO
    TITLE "0:"
    INDEX 01 00:03:47
  TRACK 06 AUDIO
    TITLE "2:cjc039_0403"
    INDEX 01 00:04:17
  TRACK 07 AUDIO
    TITLE "0:"
    INDEX 01 00:06:02
  TRACK 08 AUDIO
    TITLE "2:cjc039_0404"
    INDEX 01 00:06:53
  TRACK 09 AUDIO
    TITLE "0:"
    INDEX 01 00:08:01
  TRACK 10 AUDIO
    TITLE "2:cjc039_0405"
    INDEX 01 00:08:52
  TRACK 11 AUDIO
    TITLE "0:"
    INDEX 01 00:10:00
  TRACK 12 AUDIO
    TITLE "2:cjc039_0406"
    INDEX 01 00:10:57
  TRACK 13 AUDIO
    TITLE "0:"
    INDEX 01 00:12:32
  TRACK 14 AUDIO
    TITLE "2:cjc039_0407"
    INDEX 01 00:12:73
  TRACK 15 AUDIO
    TITLE "0:"
    INDEX 01 00:14:35
  TRACK 16 AUDIO
    TITLE "2:cjc039_0408"
    INDEX 01 00:15:13
  TRACK 17 AUDIO
    TITLE "0:"
    INDEX 01 00:16:49
  TRACK 18 AUDIO
    TITLE "2:cjc039_0409"
    INDEX 01 00:17:27
  TRACK 19 AUDIO
    TITLE "0:"
    INDEX 01 00:18:50
  TRACK 20 AUDIO
    TITLE "2:cjc039_0410"
    INDEX 01 00:19:30
  TRACK 21 AUDIO
    TITLE "0:"
    INDEX 01 00:20:51
  TRACK 22 AUDIO
    TITLE "2:cjc039_0411"
    INDEX 01 00:21:33
  TRACK 23 AUDIO
    TITLE "0:"
    INDEX 01 00:23:08
  TRACK 24 AUDIO
    TITLE "2:cjc039_0412"
    INDEX 01 00:23:65
  TRACK 25 AUDIO
    TITLE "0:"
    INDEX 01 00:25:17
  TRACK 26 AUDIO
    TITLE "2:cjc039_0413"
    INDEX 01 00:25:70
  TRACK 27 AUDIO
    TITLE "0:"
    INDEX 01 00:27:18
  TRACK 28 AUDIO
    TITLE "2:cjc039_0414"
    INDEX 01 00:27:73
  TRACK 29 AUDIO
    TITLE "0:"
    INDEX 01 00:29:15
  TRACK 30 AUDIO
    TITLE "2:cjc039_0415"
    INDEX 01 00:29:74
  TRACK 31 AUDIO
    TITLE "0:"
    INDEX 01 00:31:35
  TRACK 32 AUDIO
    TITLE "2:cjc039_0416"
    INDEX 01 00:32:09
  TRACK 33 AUDIO
    TITLE "0:"
    INDEX 01 00:33:32
  TRACK 34 AUDIO
    TITLE "2:cjc039_0417"
    INDEX 01 00:34:06
  TRACK 35 AUDIO
    TITLE "0:"
    INDEX 01 00:35:51
  TRACK 36 AUDIO
    TITLE "2:cjc039_0418"
    INDEX 01 00:36:31
  TRACK 37 AUDIO
    TITLE "0:"
    INDEX 01 00:38:00
  TRACK 38 AUDIO
    TITLE "2:cjc039_0419"
    INDEX 01 00:38:55
  TRACK 39 AUDIO
    TITLE "0:"
    INDEX 01 00:40:15
  TRACK 40 AUDIO
    TITLE "2:cjc039_0420"
    INDEX 01 00:41:02
  TRACK 41 AUDIO
    TITLE "0:"
    INDEX 01 00:42:18
  TRACK 42 AUDIO
    TITLE "2:cjc039_0421"
    INDEX 01 00:42:59
  TRACK 43 AUDIO
    TITLE "0:"
    INDEX 01 00:44:20
  TRACK 44 AUDIO
    TITLE "2:cjc039_0422"
    INDEX 01 00:44:73
  TRACK 45 AUDIO
    TITLE "0:"
    INDEX 01 00:46:23
  TRACK 46 AUDIO
    TITLE "2:cjc039_0423"
    INDEX 01 00:47:01
  TRACK 47 AUDIO
    TITLE "0:"
    INDEX 01 00:48:18
  TRACK 48 AUDIO
    TITLE "2:cjc039_0424"
    INDEX 01 00:48:73
  TRACK 49 AUDIO
    TITLE "0:"
    INDEX 01 00:50:23
  TRACK 50 AUDIO
    TITLE "2:cjc039_0425"
    INDEX 01 00:50:74
  TRACK 51 AUDIO
    TITLE "0:"
    INDEX 01 00:52:43
  TRACK 52 AUDIO
    TITLE "2:cjc039_0426"
    INDEX 01 00:53:23
  TRACK 53 AUDIO
    TITLE "0:"
    INDEX 01 00:54:34
  TRACK 54 AUDIO
    TITLE "2:cjc039_0427"
    INDEX 01 00:55:12
  TRACK 55 AUDIO
    TITLE "0:"
    INDEX 01 00:57:01
  TRACK 56 AUDIO
    TITLE "2:cjc039_0428"
    INDEX 01 00:57:60
  TRACK 57 AUDIO
    TITLE "0:"
    INDEX 01 00:59:06
  TRACK 58 AUDIO
    TITLE "2:cjc039_0429"
    INDEX 01 00:59:59
  TRACK 59 AUDIO
    TITLE "0:"
    INDEX 01 01:01:44
  TRACK 60 AUDIO
    TITLE "2:cjc039_0430"
    INDEX 01 01:02:18
  TRACK 61 AUDIO
    TITLE "0:"
    INDEX 01 01:03:35
  TRACK 62 AUDIO
    TITLE "2:cjc039_0431"
    INDEX 01 01:04:13
  TRACK 63 AUDIO
    TITLE "0:"
    INDEX 01 01:05:38
  TRACK 64 AUDIO
    TITLE "2:cjc039_0432"
    INDEX 01 01:06:16
  TRACK 65 AUDIO
    TITLE "0:"
    INDEX 01 01:07:55
  TRACK 66 AUDIO
    TITLE "2:cjc039_0433"
    INDEX 01 01:08:33
  TRACK 67 AUDIO
    TITLE "0:"
    INDEX 01 01:09:50
  TRACK 68 AUDIO
    TITLE "2:cjc039_0434"
    INDEX 01 01:10:28
  TRACK 69 AUDIO
    TITLE "0:"
    INDEX 01 01:11:56
  TRACK 70 AUDIO
    TITLE "2:cjc039_0435"
    INDEX 01 01:12:32
  TRACK 71 AUDIO
    TITLE "0:"
    INDEX 01 01:14:04
  TRACK 72 AUDIO
    TITLE "2:cjc039_0436"
    INDEX 01 01:14:61
  TRACK 73 AUDIO
    TITLE "0:"
    INDEX 01 01:16:03
  TRACK 74 AUDIO
    TITLE "2:cjc039_0437"
    INDEX 01 01:16:56
  TRACK 75 AUDIO
    TITLE "0:"
    INDEX 01 01:18:06
  TRACK 76 AUDIO
    TITLE "2:cjc039_0438"
    INDEX 01 01:18:49
  TRACK 77 AUDIO
    TITLE "0:"
    INDEX 01 01:20:04
  TRACK 78 AUDIO
    TITLE "2:cjc039_0439"
    INDEX 01 01:20:55
  TRACK 79 AUDIO
    TITLE "0:"
    INDEX 01 01:21:69
  TRACK 80 AUDIO
    TITLE "2:cjc039_0440"
    INDEX 01 01:22:48
  TRACK 81 AUDIO
    TITLE "0:"
    INDEX 01 01:23:71
